<svg width="64" height="64" viewBox="0 0 64 64" fill="none" xmlns="http://www.w3.org/2000/svg">
  <defs>
    <linearGradient id="main-gradient" x1="0%" y1="0%" x2="100%" y2="100%">
      <stop offset="0%" style="stop-color:#1e293b;stop-opacity:1" />
      <stop offset="50%" style="stop-color:#334155;stop-opacity:1" />
      <stop offset="100%" style="stop-color:#475569;stop-opacity:1" />
    </linearGradient>
    <linearGradient id="accent-gradient" x1="0%" y1="0%" x2="100%" y2="100%">
      <stop offset="0%" style="stop-color:#3b82f6;stop-opacity:1" />
      <stop offset="100%" style="stop-color:#2563eb;stop-opacity:1" />
    </linearGradient>
    <linearGradient id="gear-gradient" x1="0%" y1="0%" x2="100%" y2="100%">
      <stop offset="0%" style="stop-color:#94a3b8;stop-opacity:1" />
      <stop offset="100%" style="stop-color:#64748b;stop-opacity:1" />
    </linearGradient>
    <linearGradient id="liquid-gradient" x1="0%" y1="100%" x2="0%" y2="0%">
      <stop offset="0%" style="stop-color:#22c55e;stop-opacity:0.9" />
      <stop offset="50%" style="stop-color:#16a34a;stop-opacity:0.7" />
      <stop offset="100%" style="stop-color:#15803d;stop-opacity:0.5" />
    </linearGradient>
  </defs>
  
  <!-- Main background -->
  <rect width="64" height="64" rx="16" fill="url(#main-gradient)"/>
  
  <!-- Circuit pattern background -->
  <g opacity="0.2">
    <line x1="4" y1="12" x2="60" y2="12" stroke="#64748b" stroke-width="0.8"/>
    <line x1="4" y1="24" x2="60" y2="24" stroke="#64748b" stroke-width="0.8"/>
    <line x1="4" y1="36" x2="60" y2="36" stroke="#64748b" stroke-width="0.8"/>
    <line x1="4" y1="48" x2="60" y2="48" stroke="#64748b" stroke-width="0.8"/>
    <line x1="12" y1="4" x2="12" y2="60" stroke="#64748b" stroke-width="0.8"/>
    <line x1="24" y1="4" x2="24" y2="60" stroke="#64748b" stroke-width="0.8"/>
    <line x1="40" y1="4" x2="40" y2="60" stroke="#64748b" stroke-width="0.8"/>
    <line x1="52" y1="4" x2="52" y2="60" stroke="#64748b" stroke-width="0.8"/>
  </g>
  
  <!-- Central "R" -->
  <g transform="translate(20, 16)">
    <path d="M 0 0 L 0 28 L 3 28 L 3 16 L 12 16 L 12 13 L 3 13 L 3 3 L 14 3 Q 17 3 17 6 Q 17 9 14 9 L 11 9 L 11 12 L 14 12 Q 20 12 20 6 Q 20 0 14 0 Z" fill="url(#accent-gradient)"/>
    <path d="M 11 13 L 18 25 L 21 24 L 14 12 Z" fill="url(#accent-gradient)"/>
  </g>
  
  <!-- Processing Gear (top right) -->
  <g transform="translate(46, 10)">
    <!-- Gear teeth -->
    <g transform="translate(6, 6)">
      <rect x="-1" y="-8" width="2" height="3" fill="url(#gear-gradient)"/>
      <rect x="5" y="-6" width="3" height="2" fill="url(#gear-gradient)" transform="rotate(45)"/>
      <rect x="6" y="-1" width="3" height="2" fill="url(#gear-gradient)" transform="rotate(90)"/>
      <rect x="5" y="4" width="3" height="2" fill="url(#gear-gradient)" transform="rotate(135)"/>
      <rect x="-1" y="5" width="2" height="3" fill="url(#gear-gradient)"/>
      <rect x="-8" y="4" width="3" height="2" fill="url(#gear-gradient)" transform="rotate(225)"/>
      <rect x="-9" y="-1" width="3" height="2" fill="url(#gear-gradient)" transform="rotate(270)"/>
      <rect x="-8" y="-6" width="3" height="2" fill="url(#gear-gradient)" transform="rotate(315)"/>
    </g>
    
    <!-- Gear center -->
    <circle cx="6" cy="6" r="4" fill="url(#gear-gradient)"/>
    <circle cx="6" cy="6" r="2" fill="#1e293b"/>
    
    <!-- Rotation animation -->
    <animateTransform attributeName="transform" attributeType="XML" type="rotate" from="0 52 16" to="360 52 16" dur="6s" repeatCount="indefinite"/>
  </g>
  
  <!-- Laboratory Beaker (bottom left) -->
  <g transform="translate(6, 38)">
    <!-- Beaker outline -->
    <path d="M 6 0 L 6 8 L 3 14 L 3 18 L 17 18 L 17 14 L 14 8 L 14 0 Z" fill="none" stroke="#e2e8f0" stroke-width="1.5" opacity="0.9"/>
    
    <!-- Liquid with gradient -->
    <path d="M 6.5 8 L 4 13 L 4 17 L 16 17 L 16 13 L 13.5 8 Z" fill="url(#liquid-gradient)"/>
    
    <!-- Beaker top rim -->
    <rect x="5" y="0" width="10" height="1.5" fill="#e2e8f0" opacity="0.8"/>
    
    <!-- Measurement lines -->
    <line x1="4.5" y1="15" x2="6" y2="15" stroke="#22c55e" stroke-width="0.5" opacity="0.6"/>
    <line x1="4.8" y1="13" x2="6" y2="13" stroke="#22c55e" stroke-width="0.5" opacity="0.4"/>
    
    <!-- Animated bubbles -->
    <circle cx="8" cy="14" r="0.8" fill="#22c55e" opacity="0.7">
      <animate attributeName="cy" values="14;2;14" dur="4s" repeatCount="indefinite"/>
      <animate attributeName="opacity" values="0.7;0;0.7" dur="4s" repeatCount="indefinite"/>
      <animate attributeName="r" values="0.8;0.3;0.8" dur="4s" repeatCount="indefinite"/>
    </circle>
    <circle cx="12" cy="15" r="0.5" fill="#16a34a" opacity="0.5">
      <animate attributeName="cy" values="15;1;15" dur="5s" repeatCount="indefinite"/>
      <animate attributeName="opacity" values="0.5;0;0.5" dur="5s" repeatCount="indefinite"/>
    </circle>
    <circle cx="10" cy="16" r="0.3" fill="#22c55e" opacity="0.6">
      <animate attributeName="cy" values="16;0;16" dur="3.5s" repeatCount="indefinite"/>
      <animate attributeName="opacity" values="0.6;0;0.6" dur="3.5s" repeatCount="indefinite"/>
    </circle>
  </g>
  
  <!-- Data connection nodes -->
  <circle cx="14" cy="14" r="1.5" fill="#3b82f6" opacity="0.8"/>
  <circle cx="50" cy="50" r="1.5" fill="#22c55e" opacity="0.8"/>
  
  <!-- Circuit connections -->
  <g opacity="0.6">
    <line x1="14" y1="14" x2="32" y2="20" stroke="#3b82f6" stroke-width="1"/>
    <line x1="50" y1="50" x2="32" y2="44" stroke="#22c55e" stroke-width="1"/>
    
    <!-- Data pulse animations -->
    <circle cx="23" cy="17" r="1" fill="#3b82f6">
      <animate attributeName="opacity" values="0.2;1;0.2" dur="2s" repeatCount="indefinite"/>
    </circle>
    <circle cx="41" cy="47" r="1" fill="#22c55e">
      <animate attributeName="opacity" values="0.2;1;0.2" dur="2.8s" repeatCount="indefinite"/>
    </circle>
  </g>
</svg>