<svg width="64" height="64" viewBox="0 0 64 64" fill="none" xmlns="http://www.w3.org/2000/svg">
  <defs>
    <linearGradient id="main-gradient" x1="0%" y1="0%" x2="100%" y2="100%">
      <stop offset="0%" style="stop-color:#1e293b;stop-opacity:1" />
      <stop offset="50%" style="stop-color:#334155;stop-opacity:1" />
      <stop offset="100%" style="stop-color:#475569;stop-opacity:1" />
    </linearGradient>
    <linearGradient id="accent-gradient" x1="0%" y1="0%" x2="100%" y2="100%">
      <stop offset="0%" style="stop-color:#3b82f6;stop-opacity:1" />
      <stop offset="100%" style="stop-color:#2563eb;stop-opacity:1" />
    </linearGradient>
    <linearGradient id="gear-gradient" x1="0%" y1="0%" x2="100%" y2="100%">
      <stop offset="0%" style="stop-color:#64748b;stop-opacity:1" />
      <stop offset="100%" style="stop-color:#475569;stop-opacity:1" />
    </linearGradient>
    <linearGradient id="beaker-gradient" x1="0%" y1="0%" x2="100%" y2="100%">
      <stop offset="0%" style="stop-color:#22c55e;stop-opacity:0.8" />
      <stop offset="50%" style="stop-color:#16a34a;stop-opacity:0.6" />
      <stop offset="100%" style="stop-color:#15803d;stop-opacity:0.4" />
    </linearGradient>
  </defs>
  
  <!-- Main background -->
  <rect width="64" height="64" rx="16" fill="url(#main-gradient)"/>
  
  <!-- Circuit pattern background -->
  <g opacity="0.25">
    <line x1="8" y1="16" x2="56" y2="16" stroke="#64748b" stroke-width="1"/>
    <line x1="8" y1="32" x2="56" y2="32" stroke="#64748b" stroke-width="1"/>
    <line x1="8" y1="48" x2="56" y2="48" stroke="#64748b" stroke-width="1"/>
    <line x1="16" y1="8" x2="16" y2="56" stroke="#64748b" stroke-width="1"/>
    <line x1="32" y1="8" x2="32" y2="56" stroke="#64748b" stroke-width="1"/>
    <line x1="48" y1="8" x2="48" y2="56" stroke="#64748b" stroke-width="1"/>
  </g>
  
  <!-- Central "R" with modern styling -->
  <g transform="translate(18, 14)">
    <!-- Main R structure -->
    <path d="M 0 0 L 0 32 L 3 32 L 3 18 L 14 18 L 14 15 L 3 15 L 3 3 L 16 3 Q 19 3 19 6 Q 19 9 16 9 L 13 9 L 13 12 L 16 12 Q 22 12 22 6 Q 22 0 16 0 Z" fill="url(#accent-gradient)"/>
    
    <!-- Diagonal leg -->
    <path d="M 13 15 L 20 28 L 23 27 L 16 14 Z" fill="url(#accent-gradient)"/>
  </g>
  
  <!-- Gear element (top right) -->
  <g transform="translate(44, 8)">
    <!-- Gear outer teeth -->
    <path d="M 8 0 L 10 2 L 12 0 L 14 2 L 16 4 L 14 6 L 16 8 L 14 10 L 12 12 L 10 10 L 8 12 L 6 10 L 4 8 L 6 6 L 4 4 L 6 2 Z" fill="url(#gear-gradient)" opacity="0.8"/>
    
    <!-- Gear center -->
    <circle cx="8" cy="6" r="3" fill="url(#gear-gradient)"/>
    <circle cx="8" cy="6" r="1.5" fill="#1e293b"/>
    
    <!-- Gear rotation animation -->
    <animateTransform attributeName="transform" attributeType="XML" type="rotate" from="0 8 6" to="360 8 6" dur="8s" repeatCount="indefinite"/>
  </g>
  
  <!-- Test tube/beaker element (bottom left) -->
  <g transform="translate(8, 44)">
    <!-- Beaker base -->
    <path d="M 4 0 L 4 8 L 2 12 L 2 14 L 14 14 L 14 12 L 12 8 L 12 0 Z" fill="none" stroke="url(#accent-gradient)" stroke-width="1.5" opacity="0.9"/>
    
    <!-- Liquid inside beaker -->
    <path d="M 4.5 8 L 3 11 L 3 13 L 13 13 L 13 11 L 11.5 8 Z" fill="url(#beaker-gradient)"/>
    
    <!-- Beaker rim -->
    <rect x="3" y="0" width="10" height="1" fill="url(#accent-gradient)" opacity="0.8"/>
    
    <!-- Bubbles animation -->
    <circle cx="6" cy="11" r="0.5" fill="#22c55e" opacity="0.6">
      <animate attributeName="cy" values="11;2;11" dur="3s" repeatCount="indefinite"/>
      <animate attributeName="opacity" values="0.6;0;0.6" dur="3s" repeatCount="indefinite"/>
    </circle>
    <circle cx="10" cy="12" r="0.3" fill="#22c55e" opacity="0.4">
      <animate attributeName="cy" values="12;1;12" dur="4s" repeatCount="indefinite"/>
      <animate attributeName="opacity" values="0.4;0;0.4" dur="4s" repeatCount="indefinite"/>
    </circle>
  </g>
  
  <!-- Data connection nodes -->
  <circle cx="16" cy="16" r="1.5" fill="#22c55e" opacity="0.7"/>
  <circle cx="48" cy="48" r="1.5" fill="#22c55e" opacity="0.7"/>
  
  <!-- Active data indicators with circuit connections -->
  <g opacity="0.8">
    <!-- Connection lines -->
    <line x1="16" y1="16" x2="32" y2="24" stroke="#3b82f6" stroke-width="1" opacity="0.6"/>
    <line x1="48" y1="48" x2="32" y2="40" stroke="#3b82f6" stroke-width="1" opacity="0.6"/>
    
    <!-- Animated data pulses -->
    <circle cx="24" cy="20" r="1" fill="#3b82f6" opacity="0.8">
      <animate attributeName="opacity" values="0.3;1;0.3" dur="2s" repeatCount="indefinite"/>
    </circle>
    <circle cx="40" cy="44" r="1" fill="#3b82f6" opacity="0.6">
      <animate attributeName="opacity" values="0.3;1;0.3" dur="2.5s" repeatCount="indefinite"/>
    </circle>
  </g>
</svg>